<svg width="212" height="68" viewBox="0 0 212 68" fill="none" xmlns="http://www.w3.org/2000/svg">
<g clip-path="url(#clip0_1356_2114)">
<g clip-path="url(#clip1_1356_2114)">
<g clip-path="url(#clip2_1356_2114)">
<path d="M66.2843 16.8527C63.9587 13.1589 59.2617 14.0254 55.4308 15.0743C51.6003 16.1687 51.6459 17.8104 52.3755 20.7746L52.9684 20.5922C53.9718 22.3251 56.4342 22.2339 59.6718 21.3218C63.1376 20.3186 65.5545 19.5433 66.2843 16.8527Z" fill="#F99D2A"/>
<path d="M51.9644 7.91459C48.2705 7.91459 45.0784 9.82992 43.2086 12.7485L40.7461 16.3967C46.5376 21.2305 46.4464 27.4325 46.4464 27.4781C44.9872 24.1035 42.3878 20.9569 38.5572 18.6312C25.3324 10.6507 4.44642 0.0253296 4.44642 0.0253296C3.39756 21.2305 22.0034 30.7159 22.0034 30.7159C16.8048 30.8071 9.73634 26.7484 9.73634 26.7484C10.5116 36.5074 17.9904 44.2143 24.1467 46.9504C27.0653 48.2729 29.7559 48.9569 32.2184 49.1393C25.2412 50.325 18.3096 47.7257 18.3096 47.7257L0.250977 65.0548C7.77541 69.2504 19.1761 67.4258 23.3715 61.3607C21.593 60.4487 20.4073 59.6735 19.7689 59.0806C45.58 62.4556 57.1631 48.6833 56.6617 32.1296C56.5702 29.1198 56.6617 28.0253 58.6226 26.4292C60.9481 24.5139 62.4076 21.641 62.4076 18.4032C62.4076 12.6117 57.756 7.91459 51.9644 7.91459Z" fill="#FFBF00"/>
<path d="M57.2087 15.3479C57.2087 16.5792 56.2052 17.628 54.9286 17.628C53.6974 17.628 52.6484 16.6248 52.6484 15.3479C52.6484 14.1166 53.6519 13.0677 54.9286 13.0677C56.1598 13.0677 57.2087 14.071 57.2087 15.3479Z" fill="black"/>
<path d="M79.5087 51.6931C71.9388 51.6931 66.2383 46.0384 66.2383 38.6052C66.2383 30.9896 71.9842 25.2892 79.5996 25.2892C83.8406 25.2892 86.8964 26.4749 89.4497 29.1654C88.9028 30.0319 87.4433 31.9928 85.3915 31.9928C84.7527 31.9928 84.1143 31.8104 83.476 31.4456C82.2903 30.7616 81.0136 30.4423 79.5542 30.4423C75.5409 30.4423 72.3948 33.9081 72.3948 38.3772C72.3948 43.1199 75.5409 46.4944 79.8733 46.4944C81.4237 46.4944 82.7463 46.1296 84.0689 45.3544C84.5249 45.1264 85.0718 44.9896 85.5738 44.9896C87.4433 44.9896 88.9482 46.6312 89.5865 47.4065C87.4433 49.7323 84.6618 51.6931 79.5087 51.6931Z" fill="#FFBF00"/>
<path d="M98.9806 51.6018C94.7396 51.6018 90.4531 49.2761 90.4531 44.123C90.4531 37.1914 96.7919 36.1882 100.577 36.1882C103.404 36.1882 105.274 36.6898 106.916 37.237L107.828 37.5562V36.1882C107.828 32.6311 105.548 30.6246 101.398 30.6246C100.075 30.6246 98.8897 30.7158 97.7039 30.9439C97.4302 30.9895 97.202 31.0351 96.9742 31.0351C94.5573 31.0351 93.3715 28.4813 92.9609 27.3412C95.6062 26.2468 98.3423 25.5172 102.538 25.5172C106.368 25.5172 109.241 26.4748 111.111 28.2989C112.889 30.0774 113.801 32.7679 113.801 36.325V51.1002H107.828V48.5009C107.736 48.5009 104.59 51.6018 98.9806 51.6018ZM102.356 39.3803C98.6614 39.3803 96.4268 41.022 96.4268 43.7126C96.4268 46.1751 98.2968 47.7256 101.261 47.7256C105.137 47.7256 107.873 45.5367 107.873 42.3901V40.6116L107.463 40.4292C106.004 39.7451 104.18 39.3803 102.356 39.3803Z" fill="#FFBF00"/>
<path d="M150.329 51.3283C146.088 51.3283 141.802 49.0025 141.802 43.8494C141.802 36.9178 148.141 35.9146 151.926 35.9146C154.753 35.9146 156.623 36.4162 158.264 36.9634L159.176 37.2826V35.9146C159.176 32.3575 156.896 30.351 152.746 30.351C151.424 30.351 150.238 30.4422 149.053 30.6703C148.779 30.7159 148.551 30.7615 148.323 30.7615C145.906 30.7615 144.72 28.2077 144.31 27.0677C146.955 25.9732 149.691 25.2435 153.886 25.2435C157.717 25.2435 160.59 26.2012 162.459 28.0253C164.238 29.8038 165.15 32.4944 165.15 36.0514V50.8266H159.085V48.2273C159.085 48.2273 155.938 51.3283 150.329 51.3283ZM153.704 39.1068C150.01 39.1068 147.775 40.7485 147.775 43.439C147.775 45.9016 149.645 47.452 152.609 47.452C156.486 47.452 159.222 45.2631 159.222 42.1165V40.338L158.811 40.1556C157.352 39.4716 155.528 39.1068 153.704 39.1068Z" fill="#FFBF00"/>
<path d="M133.775 51.1002V36.9177C133.775 33.0415 131.86 30.807 128.531 30.807C125.156 30.807 123.104 33.0871 123.104 36.9177V51.1002H116.856V25.7907C116.856 25.7907 123.104 25.1979 123.104 28.8005V29.4845C123.104 29.4845 125.293 25.3347 131.632 25.3347C136.876 25.3347 140.023 28.8005 140.023 34.5464V51.1458H133.775V51.1002Z" fill="#FFBF00"/>
<path d="M168.845 51.1003V25.7909C168.936 25.7909 169.027 25.7909 169.118 25.7909C169.984 25.7909 171.626 25.8821 172.949 26.4293C174.408 27.0222 175.092 27.9798 175.092 29.3478V29.4847C175.092 29.4847 176.369 25.2892 183.437 25.2892C183.529 25.2892 183.574 25.2892 183.666 25.2892C183.666 25.2892 183.666 27.7518 183.666 29.1654C183.666 30.5791 182.89 30.9896 181.841 31.172C177.509 32.0385 175.092 34.8658 175.092 41.0677V51.1459H168.845V51.1003Z" fill="#FFBF00"/>
<path d="M192.831 59.2175C190.688 59.2175 188.818 58.7614 186.949 57.758L188.909 53.517C189.137 53.6084 189.365 53.7453 189.593 53.8361C190.414 54.1558 191.19 54.3381 191.828 54.3381C193.424 54.3381 194.336 53.7453 195.066 52.1947L195.203 51.9211L184.714 25.2435C184.805 25.2435 184.896 25.2435 184.988 25.2435C187.359 25.2435 191.6 25.9732 193.242 30.8527L198.167 45.4911L198.805 43.5302C198.851 43.439 201.587 34.6377 203.274 29.6214C204.414 26.2924 208.382 25.7908 210.616 25.7908C210.707 25.7908 210.799 25.7908 210.89 25.7908L200.949 52.2403C198.988 57.5302 197.027 59.2175 192.831 59.2175Z" fill="#FFBF00"/>
</g>
</g>
</g>
<defs>
<clipPath id="clip0_1356_2114">
<rect width="211.19" height="67.36" fill="white"/>
</clipPath>
<clipPath id="clip1_1356_2114">
<rect width="211.19" height="67.36" fill="white"/>
</clipPath>
<clipPath id="clip2_1356_2114">
<rect width="211.168" height="67.36" fill="white" transform="translate(0.0107422)"/>
</clipPath>
</defs>
</svg>
