<svg id="Layer_1" data-name="Layer 1" xmlns="http://www.w3.org/2000/svg" viewBox="0 0 288 216"><title>Seeq Logo Black</title><path d="M116.17,83H98.55c-12,0-19,6.27-19,17.2V129c0,11.12,6.88,17.49,18.86,17.48h36V134H100.53c-6.63,0-7.87-1.12-8.06-7L135,117.38V100.23C135,89.25,128.16,83,116.17,83ZM92.33,114.06V102c0-4.43,1.19-6.53,8-6.53H114.2c7.24,0,8,1.72,8,5.64v5.65Z"/><path d="M175.89,83H158.27c-12.05,0-19,6.27-19,17.2V129c0,11.12,6.88,17.49,18.86,17.48h36V134H160.25c-6.63,0-7.87-1.12-8.06-7l42.57-9.63V100.23C194.75,89.25,187.88,83,175.89,83Zm-23.84,31.11V102c0-4.43,1.19-6.53,8-6.53h13.87c7.24,0,8,1.72,8,5.64v5.65Z"/><path d="M56.45,97.42H38.64c-6.31,0-7.51-2.23-7.51-6.33V82.63c0-4.17,1.2-6.43,7.51-6.43H74.82V63.27H36.87C24.7,63.27,18,69.41,18,80.56V93c0,11.12,6.88,17.49,18.87,17.49H54.68c6.26,0,7.41,2.13,7.41,6.32v10.34c0,4.26-1.15,6.42-7.41,6.42H18.49v12.93h38c12,0,18.87-6.29,18.87-17.29V114.9C75.32,103.79,68.44,97.42,56.45,97.42Z"/><path d="M254.82,136.83a32.54,32.54,0,1,0-11.27,7.4l9.11,8.48,17.34,0Zm-23.15-1.91a21.12,21.12,0,1,1,21.14-21.09A21.15,21.15,0,0,1,231.67,134.92Z"/><path d="M230,95.88a18.34,18.34,0,0,0-4,.43c9.38,1.36,14.76,8.5,14.75,18.25,0,7.77-2.8,15.36-9.43,18.43A18.58,18.58,0,0,0,230,95.88Z"/><path d="M262.55,83a5.72,5.72,0,0,1-2.23-.43,5.57,5.57,0,0,1-1.82-1.21,5.74,5.74,0,0,1-1.23-1.87,6.3,6.3,0,0,1-.44-2.38,6.45,6.45,0,0,1,.44-2.4,5.68,5.68,0,0,1,1.23-1.88,5.6,5.6,0,0,1,1.82-1.22,6,6,0,0,1,4.45,0,5.5,5.5,0,0,1,1.82,1.22,5.68,5.68,0,0,1,1.23,1.88,6.45,6.45,0,0,1,.44,2.4,6.3,6.3,0,0,1-.44,2.38,5.74,5.74,0,0,1-1.23,1.87,5.47,5.47,0,0,1-1.82,1.21A5.67,5.67,0,0,1,262.55,83Zm0-1.27a4.25,4.25,0,0,0,1.71-.34,4,4,0,0,0,1.38-1,4.13,4.13,0,0,0,.9-1.45,5.12,5.12,0,0,0,.33-1.88,5.26,5.26,0,0,0-.33-1.9,4.36,4.36,0,0,0-.9-1.48,4,4,0,0,0-1.38-1,4.55,4.55,0,0,0-3.45,0,4.2,4.2,0,0,0-1.36,1,4.36,4.36,0,0,0-.9,1.48,5.26,5.26,0,0,0-.33,1.9,5.12,5.12,0,0,0,.33,1.88,4.18,4.18,0,0,0,2.26,2.4A4.29,4.29,0,0,0,262.55,81.68Zm-2.29-1.75V74h2.46a3.05,3.05,0,0,1,1.68.44,1.63,1.63,0,0,1,.69,1.48,1.73,1.73,0,0,1-.28,1,1.81,1.81,0,0,1-.81.68l1.3,2.34h-1.57l-1-1.92h-1v1.92Zm1.49-3h.68a1.25,1.25,0,0,0,.8-.24.8.8,0,0,0,.29-.65.86.86,0,0,0-.25-.64,1.15,1.15,0,0,0-.81-.25h-.71Z"/></svg>